<?xml version="1.0" standalone="no"?>
<!DOCTYPE svg PUBLIC "-//W3C//DTD SVG 20010904//EN"
 "http://www.w3.org/TR/2001/REC-SVG-20010904/DTD/svg10.dtd">
<svg version="1.0" xmlns="http://www.w3.org/2000/svg"
 width="52.000000pt" height="60.000000pt" viewBox="0 0 52.000000 60.000000"
 preserveAspectRatio="xMidYMid meet">

<g transform="translate(0.000000,60.000000) scale(0.100000,-0.100000)"
fill="#c8342d" stroke="none">
<path d="M218 580 c-47 -14 -85 -48 -102 -90 -22 -56 -20 -89 9 -144 18 -33
25 -63 25 -101 0 -30 5 -57 10 -60 6 -3 10 -23 10 -44 0 -31 8 -44 45 -81 l45
-44 45 44 c37 37 45 50 45 81 0 21 5 41 10 44 6 3 10 30 10 60 0 38 7 68 25
101 30 56 31 94 6 150 -30 65 -116 105 -183 84z m112 -25 c70 -36 95 -122 58
-195 -20 -40 -27 -45 -60 -48 -36 -3 -38 -2 -38 26 0 18 10 38 30 57 32 30 40
74 18 93 -7 5 -42 10 -78 10 -36 0 -71 -5 -77 -10 -23 -19 -15 -63 17 -93 20
-19 30 -39 30 -57 0 -28 -2 -29 -37 -26 -34 3 -41 8 -61 48 -37 72 -16 150 53
191 36 23 105 25 145 4z m-110 -93 c0 -35 9 -45 27 -31 9 8 17 8 26 0 18 -14
27 -4 27 31 0 30 9 35 28 16 20 -20 14 -42 -18 -73 -22 -21 -30 -38 -30 -62 0
-26 -4 -33 -20 -33 -16 0 -20 7 -20 33 0 24 -8 41 -30 62 -32 31 -38 53 -18
73 19 19 28 14 28 -16z m50 18 c0 -5 -4 -10 -10 -10 -5 0 -10 5 -10 10 0 6 5
10 10 10 6 0 10 -4 10 -10z m-33 -32 c-3 -8 -6 -5 -6 6 -1 11 2 17 5 13 3 -3
4 -12 1 -19z m50 0 c-3 -8 -6 -5 -6 6 -1 11 2 17 5 13 3 -3 4 -12 1 -19z m73
-168 c0 -6 -40 -10 -100 -10 -60 0 -100 4 -100 10 0 6 40 10 100 10 60 0 100
-4 100 -10z m0 -40 c0 -6 -40 -10 -100 -10 -60 0 -100 4 -100 10 0 6 40 10
100 10 60 0 100 -4 100 -10z m-2 -37 c3 -10 -21 -13 -97 -13 -93 0 -113 5 -94
24 13 12 186 2 191 -11z m-18 -51 l0 -27 -80 0 -80 0 0 27 0 28 80 0 80 0 0
-28z m-92 -43 c13 7 22 7 30 -1 8 -8 15 -8 26 1 11 9 16 9 22 0 10 -17 -32
-49 -66 -49 -34 0 -76 32 -66 49 6 9 11 9 21 1 10 -8 20 -8 33 -1z m24 -71
c-9 -9 -15 -9 -24 0 -9 9 -7 12 12 12 19 0 21 -3 12 -12z"/>
<path d="M70 572 c0 -5 7 -15 15 -22 8 -7 15 -8 15 -2 0 5 -7 15 -15 22 -8 7
-15 8 -15 2z"/>
<path d="M430 565 c-7 -9 -11 -18 -8 -20 3 -3 11 1 18 10 7 9 11 18 8 20 -3 3
-11 -1 -18 -10z"/>
<path d="M23 423 c9 -2 23 -2 30 0 6 3 -1 5 -18 5 -17 0 -22 -2 -12 -5z"/>
<path d="M473 423 c9 -2 23 -2 30 0 6 3 -1 5 -18 5 -16 0 -22 -2 -12 -5z"/>
<path d="M80 295 c-20 -24 -6 -28 15 -5 10 11 13 20 8 20 -6 0 -16 -7 -23 -15z"/>
<path d="M425 290 c10 -11 20 -18 23 -15 7 6 -18 35 -31 35 -5 0 -2 -9 8 -20z"/>
</g>
</svg>
