<?xml version="1.0" standalone="no"?>
<!DOCTYPE svg PUBLIC "-//W3C//DTD SVG 20010904//EN"
 "http://www.w3.org/TR/2001/REC-SVG-20010904/DTD/svg10.dtd">
<svg version="1.0" xmlns="http://www.w3.org/2000/svg"
 width="52.000000pt" height="52.000000pt" viewBox="0 0 52.000000 52.000000"
 preserveAspectRatio="xMidYMid meet">

<g transform="translate(0.000000,52.000000) scale(0.100000,-0.100000)"
fill="#000000" stroke="none">
<path d="M26 494 c-13 -12 -16 -40 -16 -134 0 -144 4 -150 91 -150 32 0 59 -3
59 -7 -1 -14 -34 -50 -52 -56 -10 -4 -18 -16 -18 -27 0 -19 6 -20 93 -20 105
0 140 -7 133 -25 -6 -17 29 -49 43 -40 6 3 11 -1 11 -9 0 -11 9 -16 30 -16 17
0 30 5 30 10 0 6 8 10 18 10 23 0 42 19 42 42 0 10 5 18 10 18 6 0 10 14 10
30 0 21 -5 30 -16 30 -8 0 -12 5 -9 10 4 6 1 18 -6 26 -9 12 -12 53 -10 155 2
98 -1 144 -9 154 -19 23 -412 22 -434 -1z m418 0 c13 -5 16 -24 16 -105 l0
-99 -220 0 -220 0 0 95 c0 79 3 96 18 104 18 11 379 15 406 5z m16 -238 c0
-13 -7 -27 -16 -30 -9 -3 -100 -6 -204 -6 -158 0 -191 3 -204 16 -9 8 -16 22
-16 30 0 12 36 14 220 14 l220 0 0 -24z m-145 -78 l1 -28 -83 0 c-46 0 -83 2
-83 5 0 2 5 16 12 30 11 25 15 26 82 23 70 -3 71 -3 71 -30z m105 22 c0 -5 8
-10 18 -10 14 0 15 2 2 10 -8 5 -10 10 -4 10 18 0 45 -36 39 -52 -4 -9 1 -18
9 -21 21 -8 20 -33 0 -41 -9 -3 -14 -12 -11 -20 7 -18 -11 -36 -29 -29 -8 3
-17 -2 -20 -11 -8 -20 -33 -21 -41 0 -3 8 -12 13 -21 9 -21 -8 -41 12 -35 35
3 11 0 20 -6 20 -6 0 -11 9 -11 20 0 11 5 20 10 20 6 0 10 11 10 25 0 20 5 25
25 25 14 0 25 5 25 10 0 6 9 10 20 10 11 0 20 -4 20 -10z m-122 -77 c3 -10
-21 -13 -97 -13 -93 0 -113 5 -94 24 13 12 186 2 191 -11z"/>
<path d="M227 405 c-20 -41 -35 -75 -32 -75 7 0 77 141 73 146 -2 2 -21 -30
-41 -71z"/>
<path d="M132 427 c-12 -13 -22 -28 -22 -33 0 -13 48 -59 55 -52 3 2 -6 15
-20 28 l-25 24 27 28 c15 15 22 28 17 28 -6 0 -20 -10 -32 -23z"/>
<path d="M315 420 l29 -30 -25 -27 c-23 -27 -23 -27 9 1 l32 30 -27 28 c-15
15 -31 28 -37 28 -5 0 3 -13 19 -30z"/>
<path d="M367 153 c-13 -12 -7 -60 8 -73 38 -31 96 27 65 65 -13 15 -61 21
-73 8z m68 -24 c9 -28 -16 -53 -44 -44 -20 6 -29 43 -14 58 15 15 52 6 58 -14z"/>
<path d="M26 48 c-24 -34 -20 -38 39 -38 46 0 55 3 55 18 0 45 -67 59 -94 20z
m72 -1 c22 -17 12 -27 -28 -27 -37 0 -52 14 -34 33 9 8 47 5 62 -6z"/>
</g>
</svg>
