<?xml version="1.0" standalone="no"?>
<!DOCTYPE svg PUBLIC "-//W3C//DTD SVG 20010904//EN"
 "http://www.w3.org/TR/2001/REC-SVG-20010904/DTD/svg10.dtd">
<svg version="1.0" xmlns="http://www.w3.org/2000/svg"
 width="56.000000pt" height="56.000000pt" viewBox="0 0 56.000000 56.000000"
 preserveAspectRatio="xMidYMid meet">

<g transform="translate(0.000000,56.000000) scale(0.100000,-0.100000)"
fill="#000000" stroke="none">
<path d="M186 505 c-81 -29 -130 -90 -141 -175 l-5 -45 13 50 c26 99 74 147
170 171 29 7 41 12 27 13 -14 0 -43 -6 -64 -14z"/>
<path d="M313 495 c109 -38 158 -165 106 -273 -71 -147 -299 -131 -354 25 -9
24 -14 31 -15 17 0 -28 36 -80 83 -118 31 -25 49 -31 101 -34 46 -3 72 0 95
13 l33 16 63 -60 c35 -34 67 -61 73 -61 10 0 42 33 42 44 0 4 -27 36 -60 70
l-60 63 15 36 c19 46 19 124 0 161 -17 32 -12 46 14 46 10 0 24 6 31 14 6 8
24 17 38 19 26 4 26 4 -3 6 -17 0 -36 6 -42 12 -16 16 -43 3 -43 -20 0 -32
-20 -35 -48 -8 -33 30 -65 47 -89 47 -10 -1 -1 -7 20 -15z m162 -25 c0 -8 -8
-16 -17 -18 -13 -2 -18 3 -18 18 0 15 5 20 18 18 9 -2 17 -10 17 -18z m-56
-326 c-17 -19 -25 -21 -36 -12 -11 9 -10 15 8 34 17 19 25 21 36 12 11 -9 10
-15 -8 -34z m75 -34 c40 -45 42 -52 22 -69 -18 -15 -40 -5 -80 38 -29 30 -29
31 -11 51 10 11 21 20 25 20 4 0 24 -18 44 -40z"/>
<path d="M175 466 c-124 -55 -128 -239 -6 -303 76 -40 150 -26 208 40 95 109
17 278 -127 277 -25 -1 -58 -7 -75 -14z m143 -10 c43 -22 65 -51 50 -63 -7 -6
-22 -13 -33 -15 -11 -2 -21 -12 -23 -23 -5 -26 -51 -75 -71 -75 -21 0 -61 40
-55 54 7 18 -20 38 -40 30 -9 -3 -16 -10 -16 -15 0 -5 -9 -9 -21 -9 -17 0 -19
4 -13 23 11 37 42 73 76 90 41 20 110 22 146 3z m89 -129 c7 -56 -17 -108 -65
-145 -29 -22 -46 -27 -93 -27 -65 0 -98 18 -137 75 -28 43 -30 100 -3 100 11
0 23 -4 26 -10 3 -5 13 -10 22 -10 22 0 53 -29 53 -50 0 -28 27 -45 45 -30 8
7 15 20 15 29 0 21 45 66 67 66 16 0 26 14 38 49 9 30 26 5 32 -47z m-49 26
c-2 -10 -10 -18 -18 -18 -8 0 -16 8 -18 18 -2 12 3 17 18 17 15 0 20 -5 18
-17z m-184 -24 c-8 -14 -34 -11 -34 4 0 8 3 17 7 20 9 9 34 -13 27 -24z m84
-76 c-2 -10 -10 -18 -18 -18 -8 0 -16 8 -18 18 -2 12 3 17 18 17 15 0 20 -5
18 -17z"/>
</g>
</svg>
