<?xml version="1.0" standalone="no"?>
<!DOCTYPE svg PUBLIC "-//W3C//DTD SVG 20010904//EN"
 "http://www.w3.org/TR/2001/REC-SVG-20010904/DTD/svg10.dtd">
<svg version="1.0" xmlns="http://www.w3.org/2000/svg"
 width="52.000000pt" height="52.000000pt" viewBox="0 0 52.000000 52.000000"
 preserveAspectRatio="xMidYMid meet">

<g transform="translate(0.000000,52.000000) scale(0.100000,-0.100000)"
fill="#000000" stroke="none">
<path d="M372 498 c-16 -16 -16 -110 0 -126 7 -7 35 -12 63 -12 28 0 56 5 63
12 16 16 16 110 0 126 -7 7 -35 12 -63 12 -28 0 -56 -5 -63 -12z m126 -30 c4
-30 -21 -40 -32 -13 -3 8 -17 15 -31 15 -14 0 -28 -7 -31 -15 -9 -24 -34 -18
-34 8 0 34 8 38 70 35 52 -3 55 -5 58 -30z m-40 -31 c4 -20 -25 -34 -40 -19
-15 15 -1 44 19 40 10 -2 19 -11 21 -21z m-54 -22 c3 -8 17 -15 31 -15 14 0
28 7 31 15 11 27 36 17 32 -12 -3 -27 -5 -28 -63 -28 -58 0 -60 1 -63 28 -4
29 21 39 32 12z"/>
<path d="M17 454 c-9 -9 -9 -96 -1 -118 5 -12 21 -16 70 -16 72 0 78 7 72 91
l-3 44 -65 3 c-36 2 -69 0 -73 -4z m131 -61 l-3 -58 -60 0 -60 0 -3 58 -3 57
66 0 66 0 -3 -57z"/>
<path d="M85 419 c-4 -6 -13 -8 -21 -5 -10 4 -14 -3 -14 -24 0 -25 4 -30 23
-30 30 0 60 32 51 54 -7 18 -29 21 -39 5z m25 -19 c0 -25 -29 -38 -41 -19 -6
9 -4 15 6 17 8 2 15 8 15 13 0 5 5 9 10 9 6 0 10 -9 10 -20z"/>
<path d="M217 453 c24 -2 62 -2 85 0 24 2 5 4 -42 4 -47 0 -66 -2 -43 -4z"/>
<path d="M192 343 l3 -68 65 0 65 0 3 68 3 67 -71 0 -71 0 3 -67z m128 -3 l0
-60 -60 0 -60 0 0 60 0 60 60 0 60 0 0 -60z"/>
<path d="M248 338 c9 -9 15 -9 24 0 9 9 7 12 -12 12 -19 0 -21 -3 -12 -12z"/>
<path d="M362 283 c-2 -56 -4 -62 -24 -65 -19 -2 -23 -10 -24 -38 -2 -62 -13
-80 -48 -80 -25 1 -34 7 -46 34 -13 27 -13 35 -3 45 22 20 14 31 -22 31 -35 0
-35 0 -37 48 -1 47 -1 47 -5 7 -3 -22 -11 -47 -19 -56 -11 -13 -14 -38 -11
-110 l3 -94 2 98 2 97 46 0 c40 0 45 -2 34 -15 -7 -8 -22 -15 -34 -16 -14 0
-16 -2 -6 -6 26 -10 50 -36 50 -55 0 -13 8 -18 30 -18 23 0 30 -5 30 -19 0
-10 6 -21 13 -24 23 -9 79 5 85 22 3 9 10 19 14 22 5 3 10 12 11 20 2 8 5 19
8 24 4 6 7 25 7 43 1 26 -4 35 -23 42 -21 8 -24 17 -28 67 l-3 58 -2 -62z m46
-85 c-5 -14 -51 -23 -74 -14 -27 10 -4 26 37 26 28 0 39 -4 37 -12z m0 -40
c-5 -14 -51 -23 -74 -14 -27 10 -4 26 37 26 28 0 39 -4 37 -12z m-13 -43 c0
-5 -19 -11 -42 -13 -40 -3 -53 5 -36 22 11 10 78 3 78 -9z m-27 -42 c2 -9 -9
-13 -37 -13 -30 0 -41 4 -41 16 0 11 9 14 37 12 20 -2 38 -9 41 -15z"/>
</g>
</svg>
