<?xml version="1.0" standalone="no"?>
<!DOCTYPE svg PUBLIC "-//W3C//DTD SVG 20010904//EN"
 "http://www.w3.org/TR/2001/REC-SVG-20010904/DTD/svg10.dtd">
<svg version="1.0" xmlns="http://www.w3.org/2000/svg"
 width="52.000000pt" height="49.000000pt" viewBox="0 0 52.000000 49.000000"
 preserveAspectRatio="xMidYMid meet">

<g transform="translate(0.000000,49.000000) scale(0.100000,-0.100000)"
fill="#c8342d" stroke="none">
<path d="M207 465 c-62 -22 -117 -84 -117 -134 0 -11 -14 -27 -34 -39 -45 -26
-57 -73 -29 -111 11 -14 30 -27 42 -29 12 -2 32 -20 47 -43 15 -24 39 -46 62
-56 20 -8 49 -22 64 -29 23 -12 28 -12 42 2 12 12 13 20 6 35 -13 23 -33 25
-50 4 -21 -25 -50 -17 -91 24 -38 38 -49 61 -29 61 6 0 10 32 10 75 0 60 -3
75 -15 75 -23 0 -19 52 8 90 66 99 208 99 274 0 27 -38 31 -90 8 -90 -12 0
-15 -15 -15 -75 l0 -75 38 0 c85 0 108 105 32 145 -18 9 -30 23 -30 36 0 52
-63 121 -128 139 -46 12 -48 12 -95 -5z m-87 -240 c0 -65 0 -65 -28 -65 -42 0
-65 22 -65 60 0 38 31 70 69 70 23 0 24 -3 24 -65z m351 47 c15 -13 22 -30 22
-52 0 -38 -23 -60 -65 -60 -28 0 -28 0 -28 65 0 62 1 65 24 65 13 0 34 -8 47
-18z m-192 -238 c-9 -11 -15 -12 -25 -3 -11 9 -12 15 -3 25 9 11 15 12 25 3
11 -9 12 -15 3 -25z"/>
<path d="M191 409 c-18 -11 -31 -23 -27 -26 3 -3 15 2 26 12 12 10 40 22 63
26 41 6 41 7 7 8 -20 0 -50 -8 -69 -20z"/>
</g>
</svg>
