<?xml version="1.0" standalone="no"?>
<!DOCTYPE svg PUBLIC "-//W3C//DTD SVG 20010904//EN"
 "http://www.w3.org/TR/2001/REC-SVG-20010904/DTD/svg10.dtd">
<svg version="1.0" xmlns="http://www.w3.org/2000/svg"
 width="52.000000pt" height="52.000000pt" viewBox="0 0 52.000000 52.000000"
 preserveAspectRatio="xMidYMid meet">

<g transform="translate(0.000000,52.000000) scale(0.100000,-0.100000)"
fill="#c8342d" stroke="none">
<path d="M26 494 c-18 -18 -23 -129 -6 -139 7 -4 7 -12 0 -25 -13 -24 -13
-127 0 -135 7 -4 7 -12 0 -25 -13 -24 -13 -106 0 -131 10 -17 22 -19 153 -18
110 1 133 3 103 10 -51 12 -66 25 -66 59 l0 28 38 -14 c49 -17 157 -17 207 1
22 8 41 15 43 15 6 0 1 -47 -7 -59 -5 -7 -31 -20 -57 -27 -45 -13 -46 -14 -10
-10 21 3 49 12 62 21 23 15 24 20 24 137 0 95 -3 125 -15 138 -14 15 -14 18 0
30 21 17 21 123 -1 144 -23 24 -445 24 -468 0z m463 -8 c7 -9 11 -38 9 -73
l-3 -58 -60 -6 c-33 -3 -48 -6 -34 -7 40 -3 87 -22 93 -38 10 -25 -41 -46
-127 -54 l-82 -7 65 -1 c36 -1 83 5 105 13 22 8 41 15 43 15 1 0 2 -11 2 -24
0 -33 -23 -54 -68 -62 -81 -14 -109 -24 -52 -17 30 3 65 9 78 14 35 14 42 11
42 -16 0 -38 -40 -58 -128 -62 -51 -3 -91 0 -117 10 -34 12 -40 19 -43 47 -3
28 -1 32 15 25 10 -4 36 -9 58 -11 l40 -3 -44 9 c-55 12 -71 25 -71 61 0 26 2
28 26 19 42 -16 52 -10 12 7 -67 27 -45 58 53 74 35 6 64 11 65 12 1 1 -75 2
-169 2 l-172 0 -3 58 c-2 35 2 64 9 73 9 11 54 14 229 14 175 0 220 -3 229
-14z m-277 -158 c-7 -7 -12 -39 -12 -75 l0 -63 -84 0 c-67 0 -85 3 -90 16 -10
27 -6 110 6 122 8 8 45 12 102 12 70 0 87 -3 78 -12z m-12 -211 c0 -36 5 -68
12 -75 9 -9 -9 -12 -84 -12 -78 0 -97 3 -102 16 -10 27 -6 110 6 122 7 7 43
12 90 12 l78 0 0 -63z"/>
<path d="M75 444 c-18 -18 -16 -33 7 -47 35 -22 66 21 36 51 -16 16 -23 15
-43 -4z m45 -20 c0 -19 -28 -30 -42 -16 -8 8 -8 15 1 26 14 17 41 10 41 -10z"/>
<path d="M75 284 c-18 -18 -16 -33 7 -47 35 -22 66 21 36 51 -16 16 -23 15
-43 -4z m43 -17 c4 -22 -27 -35 -38 -16 -10 15 7 42 24 36 6 -2 12 -11 14 -20z"/>
<path d="M70 120 c-9 -16 -8 -25 1 -36 27 -33 75 -2 52 35 -15 24 -40 25 -53
1z m48 -13 c4 -22 -27 -35 -38 -16 -10 15 7 42 24 36 6 -2 12 -11 14 -20z"/>
<path d="M333 13 c9 -2 25 -2 35 0 9 3 1 5 -18 5 -19 0 -27 -2 -17 -5z"/>
</g>
</svg>
